<?xml version="1.0" standalone="no"?>
<!DOCTYPE svg PUBLIC "-//W3C//DTD SVG 20010904//EN"
 "http://www.w3.org/TR/2001/REC-SVG-20010904/DTD/svg10.dtd">
<svg version="1.0" xmlns="http://www.w3.org/2000/svg"
 width="80.000000pt" height="80.000000pt" viewBox="0 0 80.000000 80.000000"
 preserveAspectRatio="xMidYMid meet">
<metadata>
Created by potrace 1.11, written by Peter Selinger 2001-2013
</metadata>
<g transform="translate(0.000000,80.000000) scale(0.100000,-0.100000)"
fill="#000000" stroke="none">
<path d="M0 400 l0 -400 400 0 400 0 0 400 0 400 -400 0 -400 0 0 -400z m760
0 l0 -360 -360 0 -360 0 0 360 0 360 360 0 360 0 0 -360z"/>
<path d="M90 400 l0 -310 310 0 310 0 0 310 0 310 -310 0 -310 0 0 -310z m194
100 c48 -18 70 -98 44 -155 -16 -36 -57 -55 -118 -55 l-50 0 0 110 0 110 49 0
c27 0 61 -4 75 -10z m160 -21 c3 -17 6 -48 7 -68 0 -30 2 -32 9 -15 5 12 12
42 15 68 7 42 10 46 35 46 31 0 35 -7 45 -74 9 -58 15 -53 24 16 6 50 8 53 37
56 l31 3 -14 -88 c-21 -140 -18 -133 -63 -133 -38 0 -39 0 -46 45 -7 53 -19
51 -28 -5 -6 -39 -7 -40 -45 -40 l-39 0 -11 63 c-6 34 -14 83 -17 110 l-7 47
30 0 c26 0 31 -5 37 -31z"/>
<path d="M220 400 c0 -38 3 -70 6 -70 3 0 14 5 25 10 28 15 28 105 0 120 -11
5 -22 10 -25 10 -3 0 -6 -31 -6 -70z"/>
</g>
</svg>
